<svg xmlns="http://www.w3.org/2000/svg" width="36" height="36" viewBox="0 0 36 36">
  <g id="Group_2" data-name="Group 2" transform="translate(-188 -165)">
    <circle id="Ellipse_1" data-name="Ellipse 1" cx="18" cy="18" r="18" transform="translate(188 165)" fill="#003c71"/>
    <g id="Group_1" data-name="Group 1" transform="translate(81 -83)">
      <path id="Path_1" data-name="Path 1" d="M171.891,306.351H167.3a67.68,67.68,0,0,0,1.383-11.25,29.539,29.539,0,0,0-.943-8.862l.943-.314a36.612,36.612,0,0,1,3.457,10.056A33.767,33.767,0,0,1,171.891,306.351Z" transform="translate(-43.234 -26.833)" fill="#fff"/>
      <path id="Path_2" data-name="Path 2" d="M138.126,281.216a23.554,23.554,0,0,0-3.52,5.091,40.552,40.552,0,0,0-2.514,6.851s-2.263-4.9-.377-8.673S138.126,281.216,138.126,281.216Z" transform="translate(-14.309 -23.067)" fill="#fff"/>
      <path id="Path_3" data-name="Path 3" d="M123.063,268.837a10.031,10.031,0,0,0-5.531,2.137c-2.325,2.011-3.771,5.908-3.771,5.908s-2.451-4.588,1.383-8.045S123.063,268.837,123.063,268.837Z" transform="translate(0 -12.008)" fill="#fff"/>
      <path id="Path_4" data-name="Path 4" d="M177.46,270.079A20.646,20.646,0,0,0,174,264.171a23.642,23.642,0,0,0-5.468-4.337,5.974,5.974,0,0,1,7.291-3.582c5.405,1.446,5.091,7.542,5.091,7.542s-2.483-3.284-5.091-4.274a7.574,7.574,0,0,0-5.342.314s4.462.377,6.976,3.645S177.46,270.079,177.46,270.079Z" transform="translate(-44.215 -3.005)" fill="#fff"/>
      <path id="Path_5" data-name="Path 5" d="M153.541,256.264l.44-3.457s-1.776-.864-2.577-.5-.44,1.885-.44,1.885Z" transform="translate(-30.164 0)" fill="#fff"/>
    </g>
  </g>
</svg>
